<svg id="efIbJcqM1eB1" xmlns="http://www.w3.org/2000/svg" xmlns:xlink="http://www.w3.org/1999/xlink" viewBox="0 0 400 400" shape-rendering="geometricPrecision" text-rendering="geometricPrecision">
<style><![CDATA[
#efIbJcqM1eB4_tr {animation: efIbJcqM1eB4_tr__tr 3000ms linear infinite normal forwards}@keyframes efIbJcqM1eB4_tr__tr { 0% {transform: translate(200.157708px,200.157708px) rotate(360deg);animation-timing-function: cubic-bezier(0.42,0,0.58,1)} 100% {transform: translate(200.157708px,200.157708px) rotate(0deg)}} #efIbJcqM1eB19_tr {animation: efIbJcqM1eB19_tr__tr 3000ms linear infinite normal forwards}@keyframes efIbJcqM1eB19_tr__tr { 0% {transform: translate(199.5px,199.999844px) rotate(-360deg);animation-timing-function: cubic-bezier(0.42,0,0.58,1)} 100% {transform: translate(199.5px,199.999844px) rotate(0deg)}}
]]></style>
<defs><radialGradient id="efIbJcqM1eB18-fill" cx="0" cy="0" r="1" spreadMethod="pad" gradientUnits="userSpaceOnUse" gradientTransform="matrix(0 115.5 -77.8279 0 0 0)"><stop id="efIbJcqM1eB18-fill-0" offset="0%" stop-color="#e2e5e9"/><stop id="efIbJcqM1eB18-fill-1" offset="100%" stop-color="rgba(226,229,233,0)"/></radialGradient><linearGradient id="efIbJcqM1eB77-fill" x1="321.5" y1="69.5" x2="70" y2="67.5" spreadMethod="pad" gradientUnits="userSpaceOnUse" gradientTransform="translate(0 0)"><stop id="efIbJcqM1eB77-fill-0" offset="0%" stop-color="#e2e5e9"/><stop id="efIbJcqM1eB77-fill-1" offset="100%" stop-color="rgba(226,229,233,0)"/></linearGradient><linearGradient id="efIbJcqM1eB79-fill" x1="72.7696" y1="330.77" x2="337.5" y2="330" spreadMethod="pad" gradientUnits="userSpaceOnUse" gradientTransform="translate(0 0)"><stop id="efIbJcqM1eB79-fill-0" offset="0%" stop-color="#e2e5e9"/><stop id="efIbJcqM1eB79-fill-1" offset="100%" stop-color="rgba(226,229,233,0)"/></linearGradient></defs><g clip-path="url(#efIbJcqM1eB87)"><g><g id="efIbJcqM1eB4_tr" transform="translate(200.157708,200.157708) rotate(360)"><g transform="translate(-200.157708,-200.157708)"><path d="M187.186,324.876c-28.994-3.047-56.017-16.111-76.415-36.94-20.3973-20.829-32.8921-48.12-35.3316-77.171l2.9617-.249c2.3816,28.362,14.58,55.005,34.4939,75.341c19.914,20.335,46.296,33.088,74.602,36.063l-.311,2.956Z" opacity="0.25" fill="#e2e5e9"/><path d="M324.876,187.186c-3.047-28.994-16.111-56.017-36.94-76.415-20.829-20.3974-48.12-32.8921-77.171-35.3316l-.249,2.9617c28.362,2.3816,55.005,14.5799,75.341,34.4939c20.335,19.913,33.088,46.296,36.064,74.602l2.955-.311Z" opacity="0.25" fill="#e2e5e9"/></g></g><g mask="url(#efIbJcqM1eB9)"><path d="M71.1716,82.6569l4.2426-4.2427c2.3432-2.3431,6.1421-2.3431,8.4853,0l-2.8284,2.8284c-.7811-.781-2.0474-.781-2.8285,0l-1.4142,1.4143h-5.6568ZM110.77,108.113l-5.657,5.657l5.657-5.657Zm-7.072,7.071L71.1716,82.6569h5.6568L106.527,112.355l-2.829,2.829ZM75.4142,78.4142c2.3432-2.3431,6.1421-2.3431,8.4853,0L112.184,106.698l-2.829,2.829L81.0711,81.2426c-.7811-.781-2.0474-.781-2.8285,0l-2.8284-2.8284Z" fill="#e2e5e9"/><mask id="efIbJcqM1eB9" mask-type="luminance" x="-150%" y="-150%" height="400%" width="400%"><path d="M74,82.6569l2.8284-2.8285c1.5621-1.5621,4.0948-1.5621,5.6569,0L110.77,108.113l-5.657,5.657L74,82.6569Z" fill="##0190fd"/></mask></g><path d="M24.2857,196.627l6.0804,8.205c.0803.112.1874.168.3214.168L32,205v-10h-.6429c-.347,0-.6429.274-.6429.645v7.728l-6.0937-8.205c-.0803-.112-.1875-.168-.3214-.168L23,195v4.979c0,.371.2958.645.6429.645h.6428v-3.997Z" clip-rule="evenodd" fill="#e2e5e9" fill-rule="evenodd"/><path d="M200.258,32c-.136,0-.258-.1399-.258-.2957v-7.8017c.42,0,1-.0781,1,.617L201,32h-.742Z" fill="#e2e5e9"/><path d="M196.483,23c.297,0,.517.286.517.6216v8.0676c0,.1738-.119.3108-.27.3108h-.73v-9h.483Z" fill="#e2e5e9"/><path d="M204.517,23c-.297,0-.517.286-.517.6216v8.0676c0,.1738.119.3108.27.3108h.73v-9h-.483Z" fill="#e2e5e9"/><path d="M198.688,367.785c-1.603-.017-3.206-.051-4.808-.059l.669-.783c.263-.309.374-.266.794-.264c1.222.009,3.097.022,5.623.04-.104.122-1.498,1.768-1.51,1.768-.458.56-.473,1.37.092,1.874.585.478,1.384.341,1.855-.211c1.09-1.275,2.179-2.551,3.268-3.826.275-.323.734-.378,1.065-.095l.231.197c-2.479,2.903-3.721,4.358-3.726,4.363-.834,1.024-2.342,1.265-3.392.39-1.025-.897-1.044-2.406-.161-3.394Z" fill="#e2e5e9"/><path d="M371.17,197.123c1.953,0,3.639,1.426,3.639,3.377s-1.686,3.377-3.639,3.377h-3.548c-.173,0-.32.056-.441.17s-.181.25-.181.41v.543c2.858,0,4.33,0,4.416,0c.846-.042,1.619-.267,2.318-.675c1.392-.813,2.266-2.235,2.266-3.825s-.874-3.012-2.266-3.825c-.699-.408-1.472-.633-2.318-.675-.086,0-1.558,0-4.416,0v.543c0,.16.06.296.181.41s.268.17.441.17h3.548Z" fill="#e2e5e9"/><path d="M344.569,348.225l2.828-2.828c1.562-1.562,1.562-4.095,0-5.657L293.657,286L288,291.657l56.569,56.568Z" fill="#e2e5e9"/><ellipse rx="77.8279" ry="115.5" transform="matrix(-.707107-.707107 0.707107-.707107 145.932107 146.93188)" opacity="0.25" fill="url(#efIbJcqM1eB18-fill)"/><g id="efIbJcqM1eB19_tr" transform="translate(199.5,199.999844) rotate(-360)"><g transform="translate(-199.5,-199.999844)"><g opacity="0.5"><path d="M304.685,169.848c-5.199-18.102-14.918-34.599-28.25-47.952s-29.843-23.1274-47.995-28.4126l-2.515,8.5616c16.699,4.862,31.89,13.855,44.155,26.14c12.266,12.285,21.207,27.461,25.99,44.115l8.615-2.452Z" fill="#e2e5e9"/></g><circle r="116.25" transform="matrix(.707107-.707107 0.707107 0.707107 200.463003 199.99961)" fill="none" stroke="#e2e5e9" stroke-width="1.5" stroke-dasharray="8,2"/><path d="M71.1436,236.2c6.197,21.674,17.7812,41.425,33.6724,57.413c15.892,15.988,35.573,27.691,57.208,34.019l8.265-28.258c-16.864-4.932-32.205-14.054-44.592-26.516-12.386-12.462-21.416-27.858-26.2463-44.751L71.1436,236.2Z" opacity="0.5" fill="#e2e5e9"/><g opacity="0.75"><path d="M193,347.25h6.454v2.306c0,.414-.336.75-.75.75h-6.454v-2.306c0-.414.336-.75.75-.75Z" fill="none" stroke="#e2e5e9" stroke-width="0.5"/><path d="M193,351.398h2.306v2.306c0,.414-.336.75-.75.75h-2.306v-2.306c0-.414.336-.75.75-.75Z" fill="none" stroke="#e2e5e9" stroke-width="0.5"/><path d="M193,355.546h2.306v2.306c0,.414-.336.75-.75.75h-2.306v-2.306c0-.414.336-.75.75-.75Z" fill="none" stroke="#e2e5e9" stroke-width="0.5"/><path d="M193,359.695h2.306v2.305c0,.414-.336.75-.75.75h-2.306v-2.305c0-.415.336-.75.75-.75Z" fill="none" stroke="#e2e5e9" stroke-width="0.5"/><path d="M197.148,351.398h2.306v6.454c0,.414-.336.75-.75.75h-2.306v-6.454c0-.414.336-.75.75-.75Z" fill="none" stroke="#e2e5e9" stroke-width="0.5"/><path d="M197.148,359.695h6.454v2.305c0,.414-.336.75-.75.75h-6.454v-2.305c0-.415.336-.75.75-.75Z" fill="none" stroke="#e2e5e9" stroke-width="0.5"/><path d="M201.296,347.25h2.306v2.306c0,.414-.336.75-.75.75h-2.306v-2.306c0-.414.336-.75.75-.75Z" fill="none" stroke="#e2e5e9" stroke-width="0.5"/><path d="M201.296,351.398h2.306v2.306c0,.414-.336.75-.75.75h-2.306v-2.306c0-.414.336-.75.75-.75Z" fill="none" stroke="#e2e5e9" stroke-width="0.5"/><path d="M205.444,347.25h2.306v2.306c0,.414-.336.75-.75.75h-2.306v-2.306c0-.414.336-.75.75-.75Z" fill="none" stroke="#e2e5e9" stroke-width="0.5"/><path d="M205.445,351.398h2.305v2.306c0,.414-.336.75-.75.75h-2.305v-2.306c0-.414.335-.75.75-.75Z" fill="none" stroke="#e2e5e9" stroke-width="0.5"/><path d="M201.296,355.546h6.454v2.306c0,.414-.336.75-.75.75h-6.454v-2.306c0-.414.336-.75.75-.75Z" fill="none" stroke="#e2e5e9" stroke-width="0.5"/><path d="M205.445,359.695h2.305v2.305c0,.414-.336.75-.75.75h-2.305v-2.305c0-.415.335-.75.75-.75Z" fill="none" stroke="#e2e5e9" stroke-width="0.5"/></g><g opacity="0.75"><path d="M193,36.25h2.306v2.3056c0,.4142-.336.75-.75.75h-2.306v-2.3056c0-.4142.336-.75.75-.75Z" fill="none" stroke="#e2e5e9" stroke-width="0.5"/><path d="M193,44.5463h2.306v2.3055c0,.4142-.336.75-.75.75h-2.306v-2.3055c0-.4142.336-.75.75-.75Z" fill="none" stroke="#e2e5e9" stroke-width="0.5"/><path d="M193,48.6945h6.454v2.3055c0,.4142-.336.75-.75.75h-6.454v-2.3055c0-.4143.336-.75.75-.75Z" fill="none" stroke="#e2e5e9" stroke-width="0.5"/><path d="M197.148,36.25h2.306v2.3056c0,.4142-.336.75-.75.75h-2.306v-2.3056c0-.4142.336-.75.75-.75Z" fill="none" stroke="#e2e5e9" stroke-width="0.5"/><path d="M193,40.3982h6.454v2.3055c0,.4143-.336.75-.75.75h-6.454v-2.3055c0-.4142.336-.75.75-.75Z" fill="none" stroke="#e2e5e9" stroke-width="0.5"/><path d="M197.148,44.5463h2.306v2.3055c0,.4142-.336.75-.75.75h-2.306v-2.3055c0-.4142.336-.75.75-.75Z" fill="none" stroke="#e2e5e9" stroke-width="0.5"/><path d="M201.296,36.25h2.306v10.6018c0,.4143-.336.7501-.75.7501h-2.306v-10.6019c0-.4142.336-.75.75-.75Z" fill="none" stroke="#e2e5e9" stroke-width="0.5"/><path d="M201.296,48.6945h2.306v2.3055c0,.4142-.336.75-.75.75h-2.306v-2.3055c0-.4143.336-.75.75-.75Z" fill="none" stroke="#e2e5e9" stroke-width="0.5"/><path d="M205.444,36.25h2.306v2.3056c0,.4142-.336.75-.75.75h-2.306v-2.3056c0-.4142.336-.75.75-.75Z" fill="none" stroke="#e2e5e9" stroke-width="0.5"/><path d="M205.444,40.3982h2.306v2.3055c0,.4143-.336.75-.75.75h-2.306v-2.3055c0-.4142.336-.75.75-.75Z" fill="none" stroke="#e2e5e9" stroke-width="0.5"/><path d="M205.444,44.5463h2.306v2.3055c0,.4142-.336.75-.75.75h-2.306v-2.3055c0-.4142.336-.75.75-.75Z" fill="none" stroke="#e2e5e9" stroke-width="0.5"/><path d="M205.444,48.6945h2.306v2.3055c0,.4142-.336.75-.75.75h-2.306v-2.3055c0-.4143.336-.75.75-.75Z" fill="none" stroke="#e2e5e9" stroke-width="0.5"/></g><g opacity="0.75"><path d="M51.75,193v6.454h-2.3056c-.4142,0-.75-.336-.75-.75v-6.454h2.3056c.4142,0,.75.336.75.75Z" fill="none" stroke="#e2e5e9" stroke-width="0.5"/><path d="M47.6018,193v2.306h-2.3055c-.4143,0-.75-.336-.75-.75v-2.306h2.3055c.4142,0,.75.336.75.75Z" fill="none" stroke="#e2e5e9" stroke-width="0.5"/><path d="M43.4537,193v2.306h-2.3055c-.4142,0-.75-.336-.75-.75v-2.306h2.3055c.4142,0,.75.336.75.75Z" fill="none" stroke="#e2e5e9" stroke-width="0.5"/><path d="M39.3055,193v2.306h-2.3055c-.4142,0-.75-.336-.75-.75v-2.306h2.3055c.4143,0,.75.336.75.75Z" fill="none" stroke="#e2e5e9" stroke-width="0.5"/><path d="M47.6018,197.148v2.306h-6.4537c-.4142,0-.75-.336-.75-.75v-2.306h6.4537c.4142,0,.75.336.75.75Z" fill="none" stroke="#e2e5e9" stroke-width="0.5"/><path d="M39.3055,197.148v6.454h-2.3055c-.4142,0-.75-.336-.75-.75v-6.454h2.3055c.4143,0,.75.336.75.75Z" fill="none" stroke="#e2e5e9" stroke-width="0.5"/><path d="M51.75,201.296v2.306h-2.3056c-.4142,0-.75-.336-.75-.75v-2.306h2.3056c.4142,0,.75.336.75.75Z" fill="none" stroke="#e2e5e9" stroke-width="0.5"/><path d="M47.6018,201.297v2.305h-2.3055c-.4143,0-.75-.336-.75-.75v-2.305h2.3055c.4142,0,.75.335.75.75Z" fill="none" stroke="#e2e5e9" stroke-width="0.5"/><path d="M51.75,205.445v2.305h-2.3056c-.4142,0-.75-.336-.75-.75v-2.305h2.3056c.4142,0,.75.335.75.75Z" fill="none" stroke="#e2e5e9" stroke-width="0.5"/><path d="M47.6018,205.445v2.305h-2.3055c-.4143,0-.75-.336-.75-.75v-2.305h2.3055c.4142,0,.75.335.75.75Z" fill="none" stroke="#e2e5e9" stroke-width="0.5"/><path d="M43.4537,201.297v6.453h-2.3055c-.4142,0-.75-.336-.75-.75v-6.453h2.3055c.4142,0,.75.335.75.75Z" fill="none" stroke="#e2e5e9" stroke-width="0.5"/><path d="M39.3055,205.445v2.305h-2.3055c-.4142,0-.75-.336-.75-.75v-2.305h2.3055c.4143,0,.75.335.75.75Z" fill="none" stroke="#e2e5e9" stroke-width="0.5"/></g><g opacity="0.75"><path d="M362.75,193v2.306h-2.306c-.414,0-.75-.336-.75-.75v-2.306h2.306c.414,0,.75.336.75.75Z" fill="none" stroke="#0190fd" stroke-width="0.5"/><path d="M354.454,193v2.306h-2.306c-.414,0-.75-.336-.75-.75v-2.306h2.306c.414,0,.75.336.75.75Z" fill="none" stroke="#e2e5e9" stroke-width="0.5"/><path d="M350.306,193v6.454h-2.306c-.414,0-.75-.336-.75-.75v-6.454h2.306c.414,0,.75.336.75.75Z" fill="none" stroke="#e2e5e9" stroke-width="0.5"/><path d="M362.75,197.148v2.306h-2.306c-.414,0-.75-.336-.75-.75v-2.306h2.306c.414,0,.75.336.75.75Z" fill="none" stroke="#e2e5e9" stroke-width="0.5"/><path d="M358.602,193v6.454h-2.306c-.414,0-.75-.336-.75-.75v-6.454h2.306c.414,0,.75.336.75.75Z" fill="none" stroke="#e2e5e9" stroke-width="0.5"/><path d="M354.454,197.148v2.306h-2.306c-.414,0-.75-.336-.75-.75v-2.306h2.306c.414,0,.75.336.75.75Z" fill="none" stroke="#e2e5e9" stroke-width="0.5"/><path d="M362.75,201.296v2.306h-10.602c-.414,0-.75-.336-.75-.75v-2.306h10.602c.414,0,.75.336.75.75Z" fill="none" stroke="#e2e5e9" stroke-width="0.5"/><path d="M350.306,201.296v2.306h-2.306c-.414,0-.75-.336-.75-.75v-2.306h2.306c.414,0,.75.336.75.75Z" fill="none" stroke="#e2e5e9" stroke-width="0.5"/><path d="M362.75,205.444v2.306h-2.306c-.414,0-.75-.336-.75-.75v-2.306h2.306c.414,0,.75.336.75.75Z" fill="none" stroke="#e2e5e9" stroke-width="0.5"/><path d="M358.602,205.444v2.306h-2.306c-.414,0-.75-.336-.75-.75v-2.306h2.306c.414,0,.75.336.75.75Z" fill="none" stroke="#e2e5e9" stroke-width="0.5"/><path d="M354.454,205.444v2.306h-2.306c-.414,0-.75-.336-.75-.75v-2.306h2.306c.414,0,.75.336.75.75Z" fill="none" stroke="#e2e5e9" stroke-width="0.5"/><path d="M350.306,205.444v2.306h-2.306c-.414,0-.75-.336-.75-.75v-2.306h2.306c.414,0,.75.336.75.75Z" fill="none" stroke="#e2e5e9" stroke-width="0.5"/></g><g opacity="0.35"><path d="M326.309,69.2303c-16.648-16.6476-36.412-29.8532-58.163-38.8628s-45.064-13.6469-68.607-13.6468-46.856,4.6372-68.607,13.6468-41.5148,22.2153-58.1625,38.8629l2.6535,2.6535c16.2992-16.2992,35.649-29.2284,56.945-38.0495s44.121-13.3612,67.171-13.3612c23.051,0,45.875,4.5402,67.171,13.3612s40.646,21.7502,56.945,38.0494l2.654-2.6535Z" fill="url(#efIbJcqM1eB77-fill)"/></g><g opacity="0.35"><path d="M326.309,330.77c-16.648,16.647-36.411,29.853-58.163,38.862-21.751,9.01-45.063,13.647-68.607,13.647-23.543,0-46.856-4.637-68.607-13.646-21.751-9.01-41.5148-22.216-58.1624-38.863l2.6535-2.654c16.2992,16.299,35.6489,29.229,56.9449,38.05s44.121,13.361,67.171,13.361c23.051,0,45.876-4.54,67.171-13.361c21.296-8.822,40.646-21.751,56.945-38.05l2.654,2.654Z" fill="url(#efIbJcqM1eB79-fill)"/></g><path d="M105.059,113.651l5.636-5.636l14.143,14.142-2.808,2.808c-1.562,1.562-4.095,1.562-5.657,0l-11.314-11.314Z" fill="#e2e5e9"/><g mask="url(#efIbJcqM1eB83)"><path d="M105.059,113.651l5.636-5.636-5.636,5.636Zm22.607,8.506l-4.222,4.222c-2.343,2.344-6.142,2.344-8.485,0l2.828-2.828c.781.781,2.048.781,2.829,0l1.393-1.394h5.657Zm-4.222,4.222c-2.343,2.344-6.142,2.344-8.485,0l-11.314-11.313l2.829-2.829l11.313,11.314c.781.781,2.048.781,2.829,0l2.828,2.828ZM112.11,106.601l15.556,15.556h-5.657L109.281,109.43l2.829-2.829Z" fill="#e2e5e9"/><mask id="efIbJcqM1eB83" mask-type="luminance" x="-150%" y="-150%" height="400%" width="400%"><path d="M105.059,113.651l5.636-5.636l14.143,14.142-2.808,2.808c-1.562,1.562-4.095,1.562-5.657,0l-11.314-11.314Z" transform="translate(0 0.000001)" fill="#0190fd"/></mask></g></g></g><path d="M199,75.986c0-.5523.448-1,1-1h1v13c0,.5522-.448,1-1,1h-1v-13Z" fill="#e2e5e9"/><path d="M199,309.986c0-.552.448-1,1-1h1v13c0,.552-.448,1-1,1h-1v-13Z" fill="#e2e5e9"/></g><clipPath id="efIbJcqM1eB87"><rect width="400" height="400" rx="0" ry="0" fill="#0190fd"/></clipPath></g></svg>
